<svg width="248" height="223" viewBox="0 0 248 223" fill="none" xmlns="http://www.w3.org/2000/svg">
<path d="M227.311 21.1875C220.859 14.6907 213.164 9.57217 204.69 6.14011C196.216 2.70805 187.138 1.03347 178.002 1.21722C157.776 2.15546 138.581 10.4508 124 24.555C109.345 10.3457 90.059 1.94822 69.712 0.917011C60.5684 0.698702 51.4759 2.34561 42.9847 5.75804C34.4935 9.17046 26.7803 14.2774 20.312 20.7698C-4.58303 45.7783 -9.78303 91.1487 28.437 129.536L119.437 220.903C120.041 221.511 120.758 221.993 121.548 222.322C122.337 222.651 123.184 222.821 124.039 222.821C124.894 222.821 125.741 222.651 126.53 222.322C127.32 221.993 128.037 221.511 128.641 220.903L219.641 129.536C236.145 114.297 246.051 93.1763 247.24 70.6955C247.441 61.517 245.777 52.3937 242.351 43.882C238.924 35.3702 233.807 27.6484 227.311 21.1875Z" fill="#F87171"/>
</svg>
