<svg width="64" height="64" viewBox="0 0 64 64" fill="none" xmlns="http://www.w3.org/2000/svg">
<g clip-path="url(#clip0_4_39)">
<path d="M28.8 60.8V1.1264C27.3053 0.393996 25.6644 0.00893326 24 0C21.7413 0.00229824 19.5361 0.687449 17.6738 1.96552C15.8116 3.2436 14.3792 5.05487 13.5648 7.1616C11.1946 8.07889 9.20679 9.77506 7.92802 11.9715C6.64926 14.1679 6.15555 16.7339 6.528 19.248C5.48335 20.2798 4.65065 21.5061 4.0768 22.8576C3.9424 23.1776 3.872 23.5264 3.7568 23.8592C3.62403 24.2198 3.5108 24.5872 3.4176 24.96C3.10295 26.5124 3.12477 28.1143 3.4816 29.6576C2.40686 30.8063 1.55216 32.1426 0.96 33.6L0.912 33.7152C0.595007 34.5197 0.363338 35.3552 0.2208 36.208C0.0838323 36.9309 0.00995426 37.6643 0 38.4C0.00815847 39.358 0.123 40.3122 0.3424 41.2448C0.494712 41.9648 0.708839 42.6704 0.9824 43.3536C1.0016 43.3984 1.0304 43.44 1.0496 43.4848C1.40842 44.3065 1.85587 45.0866 2.384 45.8112C2.72 46.2784 3.0848 46.72 3.4784 47.1392C3.7088 47.3824 3.952 47.6064 4.1984 47.8304C4.5184 48.1216 4.8544 48.4032 5.2064 48.6624C5.5584 48.9216 5.8464 49.1104 6.192 49.3024C6.256 49.344 6.3168 49.392 6.3808 49.4304V49.6C6.38431 52.3092 7.36799 54.9255 9.1502 56.966C10.9324 59.0064 13.3927 60.333 16.0768 60.7008C17.7749 62.4377 20.0017 63.5614 22.4077 63.8956C24.8136 64.2298 27.2624 63.7555 29.3696 62.5472C29.0081 62.0355 28.8096 61.4265 28.8 60.8ZM63.7888 36.224C63.6452 35.3718 63.4146 34.5365 63.1008 33.7312L63.0464 33.6096C62.4534 32.1483 61.5964 30.8087 60.5184 29.6576C60.8767 28.1142 60.8952 26.5113 60.5728 24.96C60.4845 24.5996 60.3776 24.2439 60.2528 23.8944C60.144 23.5488 60.0704 23.1904 59.9328 22.8576C59.359 21.506 58.5263 20.2798 57.4816 19.248C57.8534 16.7327 57.3583 14.1658 56.0777 11.9692C54.7971 9.77267 52.8072 8.07721 50.4352 7.1616C49.6208 5.05487 48.1884 3.2436 46.3262 1.96552C44.4639 0.687449 42.2587 0.00229824 40 0C38.3356 0.00893326 36.6947 0.393996 35.2 1.1264V60.8C35.1848 61.4285 34.9795 62.0377 34.6112 62.5472C36.7184 63.7555 39.1672 64.2298 41.5731 63.8956C43.9791 63.5614 46.2059 62.4377 47.904 60.7008C50.5881 60.333 53.0484 59.0064 54.8306 56.966C56.6128 54.9255 57.5965 52.3092 57.6 49.6V49.4432C57.664 49.4048 57.7248 49.3568 57.7888 49.3152C58.128 49.1104 58.4544 48.8992 58.7744 48.6752C59.0944 48.4512 59.4592 48.1344 59.7824 47.8432C60.0288 47.6192 60.272 47.3952 60.5024 47.152C61.0494 46.5718 61.5412 45.9419 61.9712 45.2704C62.3392 44.7072 62.6592 44.1152 62.9312 43.4976C62.9504 43.4528 62.9792 43.4112 62.9984 43.3664C63.2768 42.6848 63.4976 41.9776 63.6544 41.2576C63.696 41.0752 63.7312 40.8896 63.7664 40.704C63.9136 39.9456 63.9904 39.1744 64 38.4C63.9926 37.6699 63.9219 36.9419 63.7888 36.224Z" fill="#042F2E"/>
</g>
<defs>
<clipPath id="clip0_4_39">
<rect width="64" height="64" fill="white"/>
</clipPath>
</defs>
</svg>
